<svg width="25" height="25" viewBox="0 0 25 25" fill="none" xmlns="http://www.w3.org/2000/svg">
<path d="M20.3813 1C25.588 6.208 25.588 14.6733 20.3813 19.8813C15.1733 25.088 6.208 25.088 1 19.8813L20.3813 1Z" fill="white" stroke="#353535" stroke-width="0.5" stroke-linecap="round" stroke-linejoin="round"/>
<path d="M4.82397 16.58C6.44922 18.2054 8.6536 19.1186 10.9522 19.1187C13.2507 19.1189 15.4552 18.2059 17.0806 16.5806C18.7061 14.9554 19.6193 12.751 19.6194 10.4524C19.6195 8.15387 18.7066 5.9494 17.0813 4.32397M10.952 10.452L17.0806 16.5806L10.952 10.452ZM10.952 10.452V18.9373V10.452ZM10.952 10.452H19.4373H10.952Z" fill="white"/>
<path d="M4.82397 16.58C6.44922 18.2054 8.6536 19.1186 10.9522 19.1187C13.2507 19.1189 15.4552 18.2059 17.0806 16.5806M17.0806 16.5806C18.7061 14.9554 19.6193 12.751 19.6194 10.4524C19.6195 8.15387 18.7066 5.9494 17.0813 4.32397M17.0806 16.5806L10.952 10.452M10.952 10.452V18.9373M10.952 10.452H19.4373" stroke="#353535" stroke-width="0.5" stroke-linecap="round" stroke-linejoin="round"/>
</svg>
