<svg width="68" height="16" viewBox="0 0 68 16" fill="none" xmlns="http://www.w3.org/2000/svg">
<path d="M51.679 1C54.882 4.20384 54.882 9.4115 51.679 12.6153C48.4752 15.8184 42.9599 15.8184 39.7561 12.6153L51.679 1Z" stroke="#353535" stroke-width="0.307588" stroke-linecap="round" stroke-linejoin="round"/>
<path d="M42.1085 10.5844C43.1083 11.5844 44.4644 12.1461 45.8784 12.1462C47.2925 12.1463 48.6486 11.5847 49.6485 10.5848C50.6485 9.58503 51.2102 8.22895 51.2103 6.81492C51.2104 5.40089 50.6488 4.04475 49.6489 3.04483M45.8783 6.81463L49.6485 10.5848L45.8783 6.81463ZM45.8783 6.81463V12.0346V6.81463ZM45.8783 6.81463H51.0983H45.8783Z" fill="white"/>
<path d="M42.1085 10.5844C43.1083 11.5844 44.4644 12.1461 45.8784 12.1462C47.2925 12.1463 48.6486 11.5847 49.6485 10.5848M49.6485 10.5848C50.6485 9.58503 51.2102 8.22895 51.2103 6.81492C51.2104 5.40089 50.6488 4.04475 49.6489 3.04483M49.6485 10.5848L45.8783 6.81463M45.8783 6.81463V12.0346M45.8783 6.81463H51.0983" stroke="#020202" stroke-width="0.307588" stroke-linecap="round" stroke-linejoin="round"/>
<path d="M64.5977 1C67.8008 4.20384 67.8008 9.4115 64.5977 12.6153C61.3939 15.8184 55.8786 15.8184 52.6748 12.6153L64.5977 1Z" stroke="#353535" stroke-width="0.307588" stroke-linecap="round" stroke-linejoin="round"/>
<path d="M55.0272 10.5844C56.027 11.5844 57.3831 12.1461 58.7971 12.1462C60.2112 12.1463 61.5673 11.5847 62.5672 10.5848C63.5672 9.58503 64.1289 8.22895 64.129 6.81492C64.1291 5.40089 63.5675 4.04475 62.5676 3.04483M58.797 6.81463L62.5672 10.5848L58.797 6.81463ZM58.797 6.81463V12.0346V6.81463ZM58.797 6.81463H64.017H58.797Z" fill="white"/>
<path d="M55.0272 10.5844C56.027 11.5844 57.3831 12.1461 58.7971 12.1462C60.2112 12.1463 61.5673 11.5847 62.5672 10.5848M62.5672 10.5848C63.5672 9.58503 64.1289 8.22895 64.129 6.81492C64.1291 5.40089 63.5675 4.04475 62.5676 3.04483M62.5672 10.5848L58.797 6.81463M58.797 6.81463V12.0346M58.797 6.81463H64.017" stroke="#020202" stroke-width="0.307588" stroke-linecap="round" stroke-linejoin="round"/>
<path d="M12.9229 1C16.1259 4.20384 16.1259 9.4115 12.9229 12.6153C9.71909 15.8184 4.20384 15.8184 1 12.6153L12.9229 1Z" stroke="#353535" stroke-width="0.307588" stroke-linecap="round" stroke-linejoin="round"/>
<path d="M3.35242 10.5844C4.35223 11.5844 5.70831 12.1461 7.12234 12.1462C8.53636 12.1463 9.89251 11.5847 10.8924 10.5848C11.8924 9.58503 12.4541 8.22895 12.4542 6.81492C12.4543 5.40089 11.8927 4.04475 10.8928 3.04483M7.12222 6.81463L10.8924 10.5848L7.12222 6.81463ZM7.12222 6.81463V12.0346V6.81463ZM7.12222 6.81463H12.3422H7.12222Z" fill="white"/>
<path d="M3.35242 10.5844C4.35223 11.5844 5.70831 12.1461 7.12234 12.1462C8.53636 12.1463 9.89251 11.5847 10.8924 10.5848M10.8924 10.5848C11.8923 9.58503 12.4541 8.22895 12.4542 6.81492C12.4543 5.40089 11.8927 4.04475 10.8928 3.04483M10.8924 10.5848L7.12222 6.81463M7.12222 6.81463V12.0346M7.12222 6.81463H12.3422" stroke="#020202" stroke-width="0.307588" stroke-linecap="round" stroke-linejoin="round"/>
<path d="M25.8416 1C29.0446 4.20384 29.0446 9.4115 25.8416 12.6153C22.6378 15.8184 17.1225 15.8184 13.9187 12.6153L25.8416 1Z" stroke="#353535" stroke-width="0.307588" stroke-linecap="round" stroke-linejoin="round"/>
<path d="M16.2711 10.5844C17.2709 11.5844 18.627 12.1461 20.041 12.1462C21.4551 12.1463 22.8112 11.5847 23.8111 10.5848C24.8111 9.58503 25.3728 8.22895 25.3729 6.81492C25.373 5.40089 24.8114 4.04475 23.8115 3.04483M20.0409 6.81463L23.8111 10.5848L20.0409 6.81463ZM20.0409 6.81463V12.0346V6.81463ZM20.0409 6.81463H25.2609H20.0409Z" fill="white"/>
<path d="M16.2711 10.5844C17.2709 11.5844 18.627 12.1461 20.041 12.1462C21.4551 12.1463 22.8112 11.5847 23.8111 10.5848M23.8111 10.5848C24.8111 9.58503 25.3728 8.22895 25.3729 6.81492C25.373 5.40089 24.8114 4.04475 23.8115 3.04483M23.8111 10.5848L20.0409 6.81463M20.0409 6.81463V12.0346M20.0409 6.81463H25.2609" stroke="#020202" stroke-width="0.307588" stroke-linecap="round" stroke-linejoin="round"/>
<path d="M38.7603 1C41.9633 4.20384 41.9633 9.4115 38.7603 12.6153C35.5565 15.8184 30.0412 15.8184 26.8374 12.6153L38.7603 1Z" stroke="#353535" stroke-width="0.307588" stroke-linecap="round" stroke-linejoin="round"/>
<path d="M29.1898 10.5844C30.1896 11.5844 31.5457 12.1461 32.9597 12.1462C34.3738 12.1463 35.7299 11.5847 36.7298 10.5848C37.7298 9.58503 38.2915 8.22895 38.2916 6.81492C38.2917 5.40089 37.7301 4.04475 36.7302 3.04483M32.9596 6.81463L36.7298 10.5848L32.9596 6.81463ZM32.9596 6.81463V12.0346V6.81463ZM32.9596 6.81463H38.1796H32.9596Z" fill="white"/>
<path d="M29.1898 10.5844C30.1896 11.5844 31.5457 12.1461 32.9597 12.1462C34.3738 12.1463 35.7299 11.5847 36.7298 10.5848M36.7298 10.5848C37.7298 9.58503 38.2915 8.22895 38.2916 6.81492C38.2917 5.40089 37.7301 4.04475 36.7302 3.04483M36.7298 10.5848L32.9596 6.81463M32.9596 6.81463V12.0346M32.9596 6.81463H38.1796" stroke="#020202" stroke-width="0.307588" stroke-linecap="round" stroke-linejoin="round"/>
</svg>
