<svg width="23" height="6" viewBox="0 0 23 6" fill="none" xmlns="http://www.w3.org/2000/svg">
<path d="M3.24 5.24C2.54667 5.24 1.96 5 1.48 4.52C1 4.04 0.76 3.45333 0.76 2.76C0.76 2.06667 1 1.48 1.48 1C1.96 0.52 2.54667 0.28 3.24 0.28C3.90667 0.28 4.46667 0.52 4.92 1C5.4 1.48 5.64 2.06667 5.64 2.76C5.64 3.45333 5.4 4.04 4.92 4.52C4.46667 5 3.90667 5.24 3.24 5.24ZM11.6384 5.24C10.9451 5.24 10.3584 5 9.87844 4.52C9.39844 4.04 9.15844 3.45333 9.15844 2.76C9.15844 2.06667 9.39844 1.48 9.87844 1C10.3584 0.52 10.9451 0.28 11.6384 0.28C12.3051 0.28 12.8651 0.52 13.3184 1C13.7984 1.48 14.0384 2.06667 14.0384 2.76C14.0384 3.45333 13.7984 4.04 13.3184 4.52C12.8651 5 12.3051 5.24 11.6384 5.24ZM20.0369 5.24C19.3435 5.24 18.7569 5 18.2769 4.52C17.7969 4.04 17.5569 3.45333 17.5569 2.76C17.5569 2.06667 17.7969 1.48 18.2769 1C18.7569 0.52 19.3435 0.28 20.0369 0.28C20.7035 0.28 21.2635 0.52 21.7169 1C22.1969 1.48 22.4369 2.06667 22.4369 2.76C22.4369 3.45333 22.1969 4.04 21.7169 4.52C21.2635 5 20.7035 5.24 20.0369 5.24Z" fill="black"/>
</svg>
