<svg width="97" height="22" viewBox="0 0 97 22" fill="none" xmlns="http://www.w3.org/2000/svg">
<path d="M74.1007 1C78.7208 5.62129 78.7208 13.133 74.1007 17.7542C69.4794 22.3744 61.524 22.3744 56.9027 17.7542L74.1007 1Z" fill="white" stroke="#353535" stroke-width="0.443673" stroke-linecap="round" stroke-linejoin="round"/>
<path d="M60.2959 14.8249C61.7381 16.2672 63.6941 17.0775 65.7337 17.0776C67.7733 17.0777 69.7295 16.2676 71.1718 14.8254C72.6141 13.3833 73.4244 11.4272 73.4246 9.38762C73.4247 7.348 72.6145 5.39187 71.1724 3.94955M65.7335 9.38721L71.1718 14.8254L65.7335 9.38721ZM65.7335 9.38721V16.9166V9.38721ZM65.7335 9.38721H73.263H65.7335Z" fill="white"/>
<path d="M60.2959 14.8249C61.7381 16.2672 63.6941 17.0775 65.7337 17.0776C67.7733 17.0777 69.7295 16.2676 71.1718 14.8254M71.1718 14.8254C72.6141 13.3833 73.4244 11.4272 73.4246 9.38762C73.4247 7.348 72.6145 5.39187 71.1724 3.94955M71.1718 14.8254L65.7335 9.3872M65.7335 9.3872V16.9166M65.7335 9.3872H73.263" stroke="#353535" stroke-width="0.443673" stroke-linecap="round" stroke-linejoin="round"/>
<path d="M92.7349 1C97.355 5.62129 97.355 13.133 92.7349 17.7542C88.1136 22.3744 80.1583 22.3744 75.537 17.7542L92.7349 1Z" fill="white" stroke="#353535" stroke-width="0.443673" stroke-linecap="round" stroke-linejoin="round"/>
<path d="M78.9301 14.8249C80.3723 16.2672 82.3283 17.0775 84.368 17.0776C86.4076 17.0777 88.3637 16.2676 89.806 14.8254C91.2484 13.3833 92.0587 11.4272 92.0588 9.38762C92.0589 7.348 91.2488 5.39187 89.8066 3.94955M84.3678 9.38721L89.806 14.8254L84.3678 9.38721ZM84.3678 9.38721V16.9166V9.38721ZM84.3678 9.38721H91.8972H84.3678Z" fill="white"/>
<path d="M78.9301 14.8249C80.3723 16.2672 82.3283 17.0775 84.368 17.0776C86.4076 17.0777 88.3637 16.2676 89.806 14.8254M89.806 14.8254C91.2484 13.3833 92.0587 11.4272 92.0588 9.38762C92.0589 7.348 91.2488 5.39187 89.8066 3.94955M89.806 14.8254L84.3678 9.3872M84.3678 9.3872V16.9166M84.3678 9.3872H91.8972" stroke="#353535" stroke-width="0.443673" stroke-linecap="round" stroke-linejoin="round"/>
<path d="M18.1979 1C22.818 5.62129 22.818 13.133 18.1979 17.7542C13.5766 22.3744 5.62129 22.3744 1 17.7542L18.1979 1Z" fill="white" stroke="#353535" stroke-width="0.443673" stroke-linecap="round" stroke-linejoin="round"/>
<path d="M4.39319 14.8249C5.83534 16.2672 7.79139 17.0775 9.83101 17.0776C11.8706 17.0777 13.8268 16.2676 15.2691 14.8254C16.7114 13.3833 17.5217 11.4272 17.5218 9.38762C17.522 7.348 16.7118 5.39187 15.2697 3.94955M9.83084 9.38721L15.2691 14.8254L9.83084 9.38721ZM9.83084 9.38721V16.9166V9.38721ZM9.83084 9.38721H17.3603H9.83084Z" fill="white"/>
<path d="M4.39319 14.8249C5.83534 16.2672 7.79139 17.0775 9.83101 17.0776C11.8706 17.0777 13.8268 16.2676 15.2691 14.8254M15.2691 14.8254C16.7114 13.3833 17.5217 11.4272 17.5218 9.38762C17.522 7.348 16.7118 5.39187 15.2697 3.94955M15.2691 14.8254L9.83084 9.3872M9.83084 9.3872V16.9166M9.83084 9.3872H17.3603" stroke="#353535" stroke-width="0.443673" stroke-linecap="round" stroke-linejoin="round"/>
<path d="M36.8322 1C41.4523 5.62129 41.4523 13.133 36.8322 17.7542C32.2109 22.3744 24.2555 22.3744 19.6342 17.7542L36.8322 1Z" fill="white" stroke="#353535" stroke-width="0.443673" stroke-linecap="round" stroke-linejoin="round"/>
<path d="M23.0274 14.8249C24.4696 16.2672 26.4256 17.0775 28.4652 17.0776C30.5049 17.0777 32.461 16.2676 33.9033 14.8254C35.3456 13.3833 36.156 11.4272 36.1561 9.38762C36.1562 7.348 35.346 5.39187 33.9039 3.94955M28.4651 9.38721L33.9033 14.8254L28.4651 9.38721ZM28.4651 9.38721V16.9166V9.38721ZM28.4651 9.38721H35.9945H28.4651Z" fill="white"/>
<path d="M23.0274 14.8249C24.4696 16.2672 26.4256 17.0775 28.4652 17.0776C30.5049 17.0777 32.461 16.2676 33.9033 14.8254M33.9033 14.8254C35.3456 13.3833 36.156 11.4272 36.1561 9.38762C36.1562 7.348 35.346 5.39187 33.9039 3.94955M33.9033 14.8254L28.4651 9.3872M28.4651 9.3872V16.9166M28.4651 9.3872H35.9945" stroke="#353535" stroke-width="0.443673" stroke-linecap="round" stroke-linejoin="round"/>
<path d="M55.4664 1C60.0865 5.62129 60.0865 13.133 55.4664 17.7542C50.8451 22.3744 42.8898 22.3744 38.2685 17.7542L55.4664 1Z" fill="white" stroke="#353535" stroke-width="0.443673" stroke-linecap="round" stroke-linejoin="round"/>
<path d="M41.6617 14.8249C43.1038 16.2672 45.0599 17.0775 47.0995 17.0776C49.1391 17.0777 51.0953 16.2676 52.5376 14.8254C53.9799 13.3833 54.7902 11.4272 54.7903 9.38762C54.7905 7.348 53.9803 5.39187 52.5382 3.94955M47.0993 9.38721L52.5376 14.8254L47.0993 9.38721ZM47.0993 9.38721V16.9166V9.38721ZM47.0993 9.38721H54.6288H47.0993Z" fill="white"/>
<path d="M41.6617 14.8249C43.1038 16.2672 45.0599 17.0775 47.0995 17.0776C49.1391 17.0777 51.0953 16.2676 52.5376 14.8254M52.5376 14.8254C53.9799 13.3833 54.7902 11.4272 54.7903 9.38762C54.7905 7.348 53.9803 5.39187 52.5382 3.94955M52.5376 14.8254L47.0993 9.3872M47.0993 9.3872V16.9166M47.0993 9.3872H54.6288" stroke="#353535" stroke-width="0.443673" stroke-linecap="round" stroke-linejoin="round"/>
</svg>
