<svg width="162" height="158" viewBox="0 0 162 158" fill="none" xmlns="http://www.w3.org/2000/svg">
<path d="M71.2477 21.2365C68.1896 22.5777 65.3892 53.604 65.3892 53.604L68.1506 54.3576C68.1506 54.3576 69.9824 27.3581 73.0545 25.3558C76.1265 23.3536 94.9976 32.4321 94.1544 30.5097L92.709 27.2142C92.709 27.2142 74.3058 19.8952 71.2477 21.2365Z" fill="#8BDADA" stroke="#FCF5E2" stroke-width="0.987007"/>
<path d="M52.4605 17.2289C52.4683 17.2363 52.4902 17.2627 52.4952 17.3453C52.5002 17.4296 52.4856 17.5507 52.44 17.714C52.349 18.0402 52.1503 18.4814 51.8427 19.0305C51.2296 20.1252 50.2123 21.5998 48.8651 23.3533C46.1725 26.8579 42.1832 31.4498 37.5356 36.2966C32.888 41.1435 28.4673 45.3218 25.0787 48.159C23.3832 49.5786 21.9526 50.6569 20.8846 51.3153C20.3488 51.6457 19.9164 51.8627 19.5943 51.9673C19.433 52.0197 19.3126 52.0394 19.2282 52.0379C19.1454 52.0364 19.1182 52.0156 19.1105 52.0082C19.1027 52.0008 19.0808 51.9744 19.0758 51.8918C19.0708 51.8075 19.0854 51.6864 19.131 51.5231C19.222 51.1969 19.4207 50.7557 19.7283 50.2066C20.3414 49.1119 21.3587 47.6373 22.7059 45.8838C25.3985 42.3792 29.3877 37.7873 34.0354 32.9405C38.683 28.0936 43.1036 23.9153 46.4923 21.0781C48.1878 19.6585 49.6184 18.5802 50.6864 17.9218C51.2222 17.5915 51.6546 17.3744 51.9767 17.2698C52.138 17.2174 52.2584 17.1977 52.3428 17.1992C52.4256 17.2007 52.4528 17.2215 52.4605 17.2289Z" fill="#FFFFF2" stroke="#8B4B5F" stroke-width="0.493504"/>
<path d="M17.2165 20.1035L51.9972 16.8542C51.9972 16.8542 44.1378 22.4773 32.8388 34.2605C21.5397 46.0438 18.511 51.7754 18.511 51.7754L17.2165 20.1035Z" fill="#FD5C5A" stroke="#8B4B5F" stroke-width="0.493504"/>
<line y1="-0.246752" x2="24.2305" y2="-0.246752" transform="matrix(0.975032 0.222117 -0.222128 0.975005 17.645 20.5145)" stroke="#8B4B5F" stroke-width="0.493503"/>
<line y1="-0.246752" x2="22.6052" y2="-0.246752" transform="matrix(0.390798 0.920466 -0.92049 0.390791 17.645 20.5145)" stroke="#8B4B5F" stroke-width="0.493504"/>
<path d="M17.6943 19.6054C17.9694 19.8692 17.9786 20.3061 17.7148 20.5812C17.4509 20.8564 17.014 20.8656 16.7389 20.6017C16.4637 20.3379 16.4545 19.901 16.7184 19.6259C16.9822 19.3507 17.4191 19.3416 17.6943 19.6054Z" fill="#F02260" stroke="#8B4B5F" stroke-width="0.994159"/>
<line y1="-0.493503" x2="34.4315" y2="-0.493503" transform="matrix(0.721546 0.692366 -0.692386 0.721527 33.4639 34.0376)" stroke="#8B4B5F" stroke-width="0.987007"/>
<path d="M3.1065 96.5781C31.6581 75.4005 200.245 31.6965 142.182 58.4564C84.1184 85.2162 45.3351 97.6524 5.46528 107L3.1065 96.5781Z" fill="url(#paint0_linear_56_2443)" stroke="#FFFFF2" stroke-width="0.994159"/>
<path d="M83.6881 33.3159L30.8843 49.4354C30.8843 49.4354 41.6307 84.637 72.291 75.2773C102.951 65.9176 83.6881 33.3159 83.6881 33.3159Z" fill="url(#paint1_linear_56_2443)"/>
<path d="M77.3085 87.4364C78.2643 87.2347 79.0461 87.2575 79.654 87.5047C80.2905 87.7398 80.7289 88.1425 80.9694 88.7126C81.3662 89.6532 81.384 90.4515 81.0228 91.1076C80.6901 91.7516 79.9356 92.2713 78.7593 92.6668C76.1098 93.5494 74.0461 94.2689 72.5683 94.8251C71.107 95.3408 69.2017 96.0774 66.8523 97.0349C68.0101 102.725 69.2654 108.407 70.6183 114.081C71.1224 116.152 71.7445 118.542 72.4846 121.252C73.2127 123.933 73.8505 126.081 74.3978 127.697C74.6895 128.548 74.618 129.334 74.1833 130.054C73.7365 130.746 73.0713 131.279 72.1877 131.651C71.247 132.048 70.424 132.127 69.7185 131.887C69.013 131.648 68.504 131.157 68.1914 130.416C67.9028 129.732 67.5276 128.564 67.0658 126.912C66.6205 125.22 66.1736 123.444 65.7252 121.585C65.3052 119.714 64.9102 118.101 64.5402 116.746C63.9399 114.447 63.3883 112.145 62.8856 109.839C62.3828 107.533 61.9282 105.341 61.5216 103.262C61.4267 102.799 61.3221 102.272 61.2077 101.682C61.0812 101.064 60.9449 100.383 60.7989 99.6388C58.0415 100.903 55.9429 102.057 54.5029 103.101C53.063 104.144 52.1452 105.153 51.7497 106.125C51.3707 107.058 51.4036 108.051 51.8485 109.106C52.2573 110.075 52.9332 110.881 53.876 111.524C54.0742 111.676 54.2214 111.865 54.3176 112.093C54.546 112.635 54.4347 113.286 53.9835 114.047C53.5488 114.768 52.9894 115.273 52.3053 115.561C51.8207 115.766 51.3615 115.791 50.9277 115.639C50.1532 115.395 49.3943 114.909 48.651 114.182C47.8956 113.426 47.2775 112.478 46.7965 111.338C45.7745 108.915 45.7407 106.646 46.6952 104.531C47.6662 102.375 49.6179 100.276 52.5503 98.2329C55.5112 96.178 59.5286 94.0804 64.6024 91.9401C67.7379 90.6175 70.2561 89.6223 72.157 88.9548C74.0864 88.2752 75.8035 87.7691 77.3085 87.4364ZM82.8968 100.088C81.6996 100.593 80.6875 100.701 79.8604 100.412C79.0213 100.094 78.3914 99.4366 77.9705 98.439C77.5497 97.4413 77.5858 96.4523 78.0788 95.4721C78.5884 94.4513 79.4275 93.6944 80.5962 93.2014C81.6508 92.7565 82.6142 92.6523 83.4862 92.8889C84.3583 93.1254 84.9927 93.714 85.3895 94.6546C85.8705 95.7948 85.8847 96.8632 85.4321 97.86C84.9676 98.8282 84.1225 99.5709 82.8968 100.088ZM92.2403 123.193C90.3875 123.974 88.7569 123.89 87.3487 122.939C85.969 121.977 84.8222 120.412 83.9083 118.246C83.3672 116.963 82.8326 115.258 82.3044 113.131C81.7928 110.962 81.4267 108.901 81.2063 106.946C81.0781 105.925 81.1556 105.154 81.4389 104.631C81.7222 104.109 82.3341 103.649 83.2748 103.253C84.7285 102.639 85.6598 102.817 86.0686 103.786C86.3692 104.499 86.7958 106.267 87.3485 109.089C87.987 112.513 88.5408 114.781 89.0097 115.893C89.3705 116.748 89.761 117.355 90.1815 117.715C90.6019 118.075 91.0829 118.141 91.6245 117.912C92.1376 117.696 92.6286 117.069 93.0976 116.032C93.5666 114.994 94.1178 113.436 94.7512 111.355C94.9249 110.812 95.2256 110.45 95.6531 110.27C96.0237 110.113 96.3809 110.164 96.7247 110.422C97.097 110.668 97.4095 111.09 97.662 111.689C98.1429 112.829 98.2449 113.827 97.9678 114.682C96.6008 119.322 94.6916 122.158 92.2403 123.193ZM108.844 100.575C109.794 102.827 110.168 105.188 109.967 107.656C109.783 110.084 109.086 112.292 107.876 114.28C106.695 116.256 105.133 117.687 103.19 118.574C105.14 124.231 106.235 129.175 106.475 133.405C106.727 137.664 105.585 140.328 103.048 141.399C101.508 142.048 100.134 141.973 98.9237 141.174C97.7136 140.375 96.6937 138.992 95.8641 137.025C94.6857 134.232 93.9503 130.698 93.6578 126.422C93.3773 122.176 93.6329 117.25 94.4245 111.644C92.669 107.482 91.42 104.601 90.6776 103.001C90.3004 102.186 90.3517 101.392 90.8314 100.619C91.3111 99.8458 92.064 99.2427 93.0901 98.8099C93.6887 98.5574 94.1704 98.5053 94.5352 98.6536C94.9164 98.7614 95.2716 99.1656 95.6007 99.8662C95.9013 100.579 96.138 101.1 96.3108 101.43C96.742 99.9052 97.2972 98.714 97.9764 97.8567C98.6436 96.9709 99.476 96.3175 100.474 95.8967C102.07 95.2233 103.637 95.3176 105.176 96.1794C106.743 97.0292 107.966 98.4946 108.844 100.575ZM101.672 114.379C102.602 113.718 103.308 112.765 103.791 111.521C104.29 110.236 104.519 108.83 104.479 107.302C104.427 105.746 104.094 104.241 103.481 102.787C103.12 101.932 102.679 101.363 102.156 101.08C101.622 100.768 101.07 100.732 100.5 100.973C99.4734 101.405 98.6904 103.012 98.1505 105.791C98.6511 107.058 99.4124 108.902 100.434 111.325C100.988 112.636 101.4 113.654 101.672 114.379ZM101.622 137.064C102.392 136.74 102.324 134.787 101.418 131.207C100.524 127.656 99.0964 123.356 97.1347 118.307C97.1114 121.675 97.2906 124.806 97.6722 127.7C98.0537 130.595 98.6173 132.926 99.3628 134.693C99.7476 135.605 100.156 136.256 100.589 136.644C100.993 137.044 101.337 137.184 101.622 137.064ZM125.185 110.403C123.703 111.028 122.419 111.167 121.332 110.82C120.274 110.46 119.564 109.853 119.203 108.998C118.891 108.257 118.891 107.501 119.204 106.731C119.517 105.961 120.201 105.354 121.256 104.909C121.626 104.753 122.072 104.615 122.593 104.496C123.13 104.337 123.533 104.217 123.801 104.137C123.46 103.408 122.994 102.782 122.404 102.259C121.843 101.723 121.208 101.253 120.499 100.846C119.779 100.412 119.122 100.05 118.531 99.7627C118.357 101.817 118.062 103.587 117.648 105.071C117.261 106.543 116.766 107.995 116.16 109.425C115.864 110.155 115.43 110.64 114.86 110.88C114.404 111.073 113.968 111.072 113.55 110.879C113.121 110.657 112.804 110.304 112.6 109.82C112.359 109.249 112.336 108.638 112.531 107.985L112.798 107.066C113.548 104.467 114.058 102.372 114.327 100.781C114.463 99.7496 114.57 98.4117 114.648 96.7669C114.715 95.0937 114.749 93.3836 114.751 91.6369C114.763 90.1542 115.625 89.0521 117.335 88.3307C118.133 87.994 118.719 87.8308 119.093 87.8411C119.466 87.8513 119.719 88.0132 119.851 88.3268C119.924 88.4978 119.981 88.7926 120.023 89.2113C120.065 89.6299 120.065 90.0666 120.022 90.5214C119.942 91.764 120.052 92.7416 120.352 93.4542C120.533 93.8817 120.874 94.2919 121.375 94.6848C121.905 95.0656 122.646 95.5085 123.598 96.0136C125.015 96.826 126.132 97.5636 126.949 98.2264C127.782 98.8486 128.409 99.6585 128.83 100.656C128.95 100.941 129.09 101.352 129.249 101.889C130.418 100.759 131.449 98.6278 132.345 95.4968C132.518 94.9535 132.819 94.5916 133.247 94.4113C133.617 94.2549 133.974 94.3057 134.318 94.5636C134.691 94.8095 135.003 95.2317 135.255 95.8303C135.712 96.9135 135.814 97.9113 135.561 98.8239C134.882 101.192 134.024 102.981 132.99 104.19C131.972 105.358 130.52 106.373 128.634 107.236C127.903 108.686 126.753 109.742 125.185 110.403ZM141.552 78.6689C142.208 78.3924 142.7 78.2855 143.029 78.3483C143.357 78.4111 143.606 78.642 143.774 79.0411C144.063 79.7252 144.72 82.3187 145.747 86.8215C146.787 91.1171 147.406 93.6596 147.604 94.4488C149.64 102.219 150.633 108.633 150.584 113.691C150.535 118.748 148.971 121.926 145.893 123.224C144.439 123.838 143.063 123.88 141.767 123.353C140.482 122.854 139.533 121.878 138.919 120.424C138.354 119.085 138.076 117.59 138.086 115.941C138.124 114.28 138.584 112.188 139.468 109.666C140.392 107.161 141.887 104.097 143.951 100.473L143.664 99.4351C143.419 98.2963 143.009 96.6894 142.436 94.6143C142.732 96.9071 142.595 98.8116 142.026 100.328C141.445 101.815 140.584 102.799 139.444 103.28C138.161 103.821 136.86 103.682 135.54 102.862C134.237 102.002 133.213 100.688 132.467 98.9204C131.565 96.7825 130.884 94.7698 130.424 92.8823C129.951 90.9663 129.622 88.8723 129.436 86.6005C129.36 85.6251 129.501 84.8439 129.858 84.2569C130.214 83.6699 130.949 83.142 132.06 82.673C132.687 82.4085 133.157 82.3279 133.469 82.4312C133.81 82.5225 134.064 82.7677 134.233 83.1668C134.329 83.3948 134.497 84.2306 134.736 85.674C134.896 86.8489 135.071 87.9 135.261 88.8273C135.526 90.0922 135.801 91.3023 136.087 92.4576C136.361 93.5844 136.642 94.4899 136.931 95.174C137.388 96.2572 137.915 96.6725 138.514 96.42C138.942 96.2396 139.288 95.5896 139.555 94.4699C139.85 93.3382 139.987 91.7527 139.966 89.7133C139.974 87.6619 139.784 85.2235 139.398 82.398C139.266 81.4467 139.349 80.6895 139.649 80.1266C139.977 79.5516 140.612 79.0657 141.552 78.6689ZM144.613 118.879C145.326 118.578 145.775 117.415 145.962 115.389C146.148 113.363 145.871 110.239 145.131 106.018C143.718 108.797 142.831 111.152 142.471 113.084C142.151 115.032 142.232 116.576 142.713 117.716C142.917 118.201 143.171 118.564 143.474 118.805C143.806 119.034 144.186 119.059 144.613 118.879Z" fill="#FD5C5A"/>
<defs>
<linearGradient id="paint0_linear_56_2443" x1="76.8108" y1="65.4685" x2="82.2759" y2="89.616" gradientUnits="userSpaceOnUse">
<stop offset="0.328125" stop-color="#FCF5E2"/>
<stop offset="0.953125" stop-color="#FECB75"/>
</linearGradient>
<linearGradient id="paint1_linear_56_2443" x1="66.9672" y1="50.842" x2="63.6643" y2="35.4286" gradientUnits="userSpaceOnUse">
<stop stop-color="#B5CC42"/>
<stop offset="0.4375" stop-color="#FCF5E2"/>
</linearGradient>
</defs>
</svg>
